<svg xmlns="http://www.w3.org/2000/svg" viewBox="15 0 30 30"><defs><mask id="fm" maskUnits="userSpaceOnUse" x="15" y="0" width="30" height="30"><path transform="translate(15 0)" d="M9.94,-0.25 L18.31,-0.25 L18.19,-0.25 L16.34,0.15 L18.05,0.54 L16.03,0.94 L17.71,1.33 L18.26,1.73 L18.08,2.12 L9.94,2.12 L10.88,2.12 L12.66,1.73 L10.93,1.33 L11.89,0.94 L9.97,0.54 L13.81,0.15 L10.72,-0.25ZM12.23,1.47 L19.21,1.62 L19.21,2.02 L12.23,1.87ZM5.54,1.62 L27.29,1.62 L26.72,1.62 L24.44,2.02 L27.07,2.42 L23.33,2.81 L26.56,3.21 L23.23,3.60 L26.35,4.00 L5.54,4.00 L6.55,4.00 L6.76,3.60 L6.46,3.21 L9.67,2.81 L5.77,2.42 L6.42,2.02 L6.46,1.62ZM1.74,2.30 L6.06,2.45 L6.06,2.85 L1.74,2.70ZM4.60,3.50 L25.50,3.50 L25.31,3.50 L24.42,3.90 L24.51,4.29 L21.51,4.69 L25.12,5.08 L23.80,5.48 L24.92,5.88 L4.60,5.88 L5.10,5.88 L5.38,5.48 L5.33,5.08 L5.89,4.69 L4.98,4.29 L4.88,3.90 L5.35,3.50ZM2.24,4.21 L8.78,4.36 L8.78,4.76 L2.24,4.61ZM3.84,5.38 L28.24,5.38 L27.42,5.38 L26.70,5.77 L27.93,6.17 L26.42,6.56 L27.21,6.96 L27.37,7.35 L27.70,7.75 L3.84,7.75 L4.46,7.75 L5.78,7.35 L4.10,6.96 L7.59,6.56 L4.38,6.17 L5.78,5.77 L4.70,5.38ZM25.33,5.65 L29.80,5.80 L29.80,6.20 L25.33,6.05ZM1.66,7.25 L28.78,7.25 L28.36,7.25 L27.79,7.65 L28.16,8.04 L25.31,8.44 L28.31,8.83 L27.01,9.23 L28.73,9.62 L1.66,9.62 L2.22,9.62 L5.80,9.23 L1.71,8.83 L2.33,8.44 L2.70,8.04 L4.55,7.65 L1.81,7.25ZM0.80,9.12 L27.68,9.12 L26.79,9.12 L26.44,9.52 L27.20,9.92 L23.48,10.31 L26.78,10.71 L23.58,11.10 L27.20,11.50 L0.80,11.50 L0.96,11.50 L2.63,11.10 L0.92,10.71 L4.11,10.31 L1.47,9.92 L4.79,9.52 L1.57,9.12ZM23.51,10.49 L28.86,10.64 L28.86,11.04 L23.51,10.89ZM2.33,11.00 L27.80,11.00 L27.27,11.00 L27.54,11.40 L26.97,11.79 L26.31,12.19 L27.19,12.58 L27.66,12.98 L27.48,13.38 L2.33,13.38 L2.91,13.38 L4.50,12.98 L2.85,12.58 L3.09,12.19 L3.25,11.79 L6.27,11.40 L2.52,11.00ZM1.84,12.88 L28.97,12.88 L28.63,12.88 L27.82,13.27 L28.66,13.67 L26.87,14.06 L28.26,14.46 L27.47,14.85 L28.68,15.25 L1.84,15.25 L2.65,15.25 L3.83,14.85 L2.73,14.46 L2.59,14.06 L2.20,13.67 L5.86,13.27 L2.59,12.88ZM23.13,14.63 L29.80,14.78 L29.80,15.18 L23.13,15.03ZM2.24,14.75 L27.54,14.75 L26.79,14.75 L24.48,15.15 L27.36,15.54 L24.27,15.94 L26.93,16.33 L24.75,16.73 L27.10,17.12 L2.24,17.12 L2.97,17.12 L4.25,16.73 L3.23,16.33 L5.76,15.94 L2.42,15.54 L4.47,15.15 L2.79,14.75ZM2.11,16.62 L28.03,16.62 L27.54,16.62 L27.08,17.02 L27.98,17.42 L27.47,17.81 L27.70,18.21 L27.27,18.60 L27.83,19.00 L2.11,19.00 L2.15,19.00 L4.76,18.60 L2.83,18.21 L3.03,17.81 L2.79,17.42 L3.96,17.02 L2.28,16.62ZM26.83,17.50 L29.80,17.65 L29.80,18.05 L26.83,17.90ZM1.21,18.50 L28.55,18.50 L28.23,18.50 L27.31,18.90 L28.01,19.29 L24.56,19.69 L28.24,20.08 L27.07,20.48 L28.41,20.88 L1.21,20.88 L1.78,20.88 L5.26,20.48 L1.78,20.08 L4.10,19.69 L2.12,19.29 L4.80,18.90 L2.21,18.50ZM26.43,19.56 L29.80,19.71 L29.80,20.11 L26.43,19.96ZM1.91,20.38 L28.70,20.38 L28.36,20.38 L25.02,20.77 L28.11,21.17 L26.90,21.56 L27.68,21.96 L26.63,22.35 L28.20,22.75 L1.91,22.75 L2.48,22.75 L5.76,22.35 L2.25,21.96 L3.51,21.56 L2.60,21.17 L5.36,20.77 L2.01,20.38ZM3.21,22.25 L27.64,22.25 L27.49,22.25 L27.54,22.65 L26.94,23.04 L23.60,23.44 L27.38,23.83 L27.47,24.23 L27.49,24.62 L3.21,24.62 L4.18,24.62 L4.50,24.23 L4.20,23.83 L3.29,23.44 L3.47,23.04 L4.47,22.65 L3.99,22.25ZM23.37,23.15 L28.74,23.30 L28.74,23.70 L23.37,23.55ZM3.11,24.12 L24.64,24.12 L24.62,24.12 L24.11,24.52 L24.34,24.92 L21.66,25.31 L23.99,25.71 L21.57,26.10 L24.61,26.50 L3.11,26.50 L4.05,26.50 L6.81,26.10 L4.02,25.71 L5.29,25.31 L4.15,24.92 L5.18,24.52 L3.41,24.12ZM2.00,25.40 L6.26,25.55 L6.26,25.95 L2.00,25.80ZM7.54,26.00 L23.29,26.00 L22.33,26.00 L21.67,26.40 L22.87,26.79 L19.71,27.19 L23.08,27.58 L22.04,27.98 L22.41,28.38 L7.54,28.38 L8.05,28.38 L10.20,27.98 L8.28,27.58 L9.96,27.19 L7.99,26.79 L10.81,26.40 L7.56,26.00ZM19.00,27.57 L25.24,27.72 L25.24,28.12 L19.00,27.97ZM6.62,27.88 L21.30,27.88 L21.02,27.88 L20.94,28.27 L21.24,28.67 L17.35,29.06 L20.95,29.46 L19.50,29.85 L21.23,30.25 L6.62,30.25 L7.39,30.25 L6.83,29.85 L7.19,29.46 L8.41,29.06 L7.19,28.67 L10.71,28.27 L7.55,27.88ZM3.10,28.79 L7.19,28.94 L7.19,29.34 L3.10,29.19Z" fill="#fff"/></mask><clipPath id="ft"><path d="M30,15h30v15zv15H0zH0V0zV0h30z"/></clipPath></defs><g mask="url(#fm)"><path d="M0,0v30h60V0z" fill="#1b3a93"/><path d="M0,0L60,30M60,0L0,30" stroke="#fff" stroke-width="6"/><path d="M0,0L60,30M60,0L0,30" clip-path="url(#ft)" stroke="#C8102E" stroke-width="4"/><path d="M30,0v30M0,15h60" stroke="#fff" stroke-width="10"/><path d="M30,0v30M0,15h60" stroke="#C8102E" stroke-width="6"/></g></svg>